# xmcd CD database file
#
# Track frame offsets:
#	150
#	23690
#	48043
#	69251
#	78832
#	100137
#	121374
#	144012
#	166840
#	195292
#	218320
#	242558
#	269398
#
# Disc length: 3795 seconds
#
# Revision: 0
# Processed by: cddbd v1.5.2PL0 Copyright (c) Steve Scherf et al.
# Submitted via: CDex 1.51
#
DISCID=910ed10d
DTITLE=Terri Lyne Carrington - More to Say ...
DYEAR=2009
DGENRE=Jazz
TTITLE0=More to Say
TTITLE1=Favorite Lullaby
TTITLE2=Everyday
TTITLE3=Oh, Freedom ! (Interlude)
TTITLE4=Sherwood Forest
TTITLE5=Hold Me Again
TTITLE6=Dorian's Playground
TTITLE7=Mesmerized
TTITLE8=Let It Be
TTITLE9=Papa-san
TTITLE10=Imagine This
TTITLE11=No Not One (For Helen)
TTITLE12=Real Life (Bonus Track)
EXTD=YEAR: 2009
EXTT0=
EXTT1=
EXTT2=
EXTT3=
EXTT4=
EXTT5=
EXTT6=
EXTT7=
EXTT8=
EXTT9=
EXTT10=
EXTT11=
EXTT12=
PLAYORDER=
